<svg xmlns="http://www.w3.org/2000/svg" viewBox="0 0 163 177.18"><defs><style>.cls-1{fill:#b78383;}.cls-2{fill:#895151;}.cls-3{fill:#5e3e26;}.cls-4{fill:none;stroke:#356026;stroke-miterlimit:10;stroke-width:2px;}.cls-5{fill:#5a8e4c;}.cls-6{fill:#406b32;}</style></defs><title>plant</title><g id="Layer_2" data-name="Layer 2"><g id="Laag_1" data-name="Laag 1"><path class="cls-1" d="M50.75,125.11c1.77,30.45,11.48,43.69,15.45,52.07h38s14.57-32.65,14.57-52.07"/><ellipse class="cls-2" cx="84.73" cy="125.33" rx="33.98" ry="4.63"/><path class="cls-3" d="M56.65,127.94s8.67-3.27,11.76-2.83,11-.44,12.79,0a29.69,29.69,0,0,0,11,0c4.85-.89,11.91,1.76,14.56,1.32s9.88,0,9.88,0S103.16,134.3,56.65,127.94Z"/><path class="cls-4" d="M72.48,53.39S86.16,101.94,86.16,128"/><path class="cls-5" d="M75.2,59.11S77.6,44.26,65,24C59.27,14.84,51.45,8.12,42.92,4.85c-5.85-2.24-13-4.26-19.39-4,0,0-.81,21.25,10.31,40.93S66.33,62.78,75.2,59.11Z"/><path class="cls-4" d="M56.44,74s23.85,34.17,30.38,56.44"/><path class="cls-5" d="M58.81,76S57.14,62.7,41.26,48.54C34.07,42.13,25.7,38.35,17.58,37.7,12,37.25,5.38,37.32,0,39.14c0,0,4.64,18.38,19.09,32.42S52.14,81.36,58.81,76Z"/><path class="cls-4" d="M93.47,58.15s-12.59,45-11.26,71"/><path class="cls-5" d="M91.78,60.82s-3.16-14.71,8.41-35.58c5.24-9.45,12.7-16.55,21.06-20.25C127,2.45,134,.06,140.4,0c0,0,1.9,21.18-8.2,41.4S100.82,64,91.78,60.82Z"/><path class="cls-4" d="M112.45,77.54S91,108.21,85.18,128.2"/><path class="cls-5" d="M110.22,79.37s1.5-11.94,15.75-24.64c6.45-5.76,14-9.15,21.25-9.74,5-.4,11-.34,15.78,1.3,0,0-4.16,16.49-17.13,29.09S116.2,84.18,110.22,79.37Z"/><path class="cls-6" d="M0,39.48s15,7,59,37c0,0-4.53-19.38-19.76-29.69C39.24,46.79,23,31.48,0,39.48Z"/><path class="cls-6" d="M23,.48S47.71,14.33,75,60.09c0,0,4.07-19.49-5.4-35.26C69.56,24.83,45-2.52,23,.48Z"/><path class="cls-6" d="M110,80.25s8.2-4.91,53-33.77A38.62,38.62,0,0,0,132,47S111.63,56,110,80.25Z"/><path class="cls-6" d="M92,62.21S107,39.48,140,.48c0,0-23-2-40.47,22.54C99.53,23,84.11,39.15,92,62.21Z"/></g></g></svg>