<svg id="Layer_1" data-name="Layer 1" xmlns="http://www.w3.org/2000/svg" viewBox="0 0 119.8 183"><title>tvaan</title><rect x="53.4" y="86" width="6" height="20" style="fill:#282725"/><polygon points="119.8 183 9 151.1 0 148.5 0 12.5 119.8 0 119.8 183" style="fill:#cfd7d8"/><path d="M24.4,82.8s-18,18.2-1,20.2a105.5,105.5,0,0,0,31-1V93s-22,3-22,0" style="fill:#454d45"/><polygon points="12.4 126 11.5 152 34.2 158.3 42.4 137 12.4 126" style="fill:#21272e"/><path d="M33.5,81.2s16.1,54.6,9.2,57.7-30.2-12.7-30.2-12.7,8.3-45.4,11.4-45.3Z" style="fill:#454d45"/><ellipse cx="28.4" cy="68" rx="8" ry="16" style="fill:#cc9e7f"/><polyline points="41.5 139.2 41.5 139.6 41.5 160.5 33.8 158.4" style="fill:#151517"/><rect x="56.4" y="91" width="5" height="10" style="fill:#151517"/><rect x="55.4" y="87" width="15" height="5" transform="translate(-13.9 11.6) rotate(-9.5)" style="fill:#151517"/><path d="M64.4,91s0,5-4,6" style="fill:none;stroke:#151517;stroke-miterlimit:10"/><ellipse cx="58.4" cy="96.5" rx="4" ry="2.5" style="fill:#cc9e7f"/><polygon points="101.4 138 98.4 177 71.4 169 68.1 145 101.4 138" style="fill:#21272e"/><path d="M85.3,90.8s-24.7,52-17.8,56,33.7-8.7,33.7-8.7-2.3-46-5.7-46.3Z" style="fill:#5e6885"/><polyline points="68.7 147.3 68.6 147.6 64.4 167 71.4 169" style="fill:#151517"/><ellipse cx="90.4" cy="77" rx="8" ry="16" style="fill:#d1956b"/><path d="M88.4,103S90,59,95.5,54s7.9,3,7.9,3-3.2,47-7.1,49S88.4,103,88.4,103Z" style="fill:#5e6885"/><ellipse cx="101.4" cy="48.5" rx="5.5" ry="3" transform="matrix(0.17, -0.98, 0.98, 0.17, 36.06, 139.95)" style="fill:#d1956b"/></svg>
