<svg xmlns="http://www.w3.org/2000/svg" viewBox="0 0 119.8 183"><defs><style>.cls-1{fill:#282724;}.cls-2{fill:#ced6d8;}.cls-3{fill:#444c44;}.cls-4{fill:#21272d;}.cls-5{fill:#cc9e7f;}.cls-6{fill:#151516;}.cls-7{fill:none;stroke:#151516;stroke-miterlimit:10;}.cls-8{fill:#5d6784;}.cls-9{fill:#d1946b;}</style></defs><title>Asset 149</title><g id="Layer_2" data-name="Layer 2"><g id="Layer_17" data-name="Layer 17"><rect class="cls-1" x="53.4" y="86" width="6" height="20"/><polygon class="cls-2" points="119.8 183 9 151.1 0 148.5 0 12.5 119.8 0 119.8 183"/><path class="cls-3" d="M24.4,82.8s-18,18.2-1,20.2a105.5,105.5,0,0,0,31-1V93s-22,3-22,0"/><polygon class="cls-4" points="12.4 126 11.5 152 34.2 158.3 42.4 137 12.4 126"/><path class="cls-3" d="M33.5,81.2s16.1,54.6,9.2,57.7-30.2-12.7-30.2-12.7,8.3-45.4,11.4-45.3Z"/><ellipse class="cls-5" cx="28.4" cy="68" rx="8" ry="16"/><polyline class="cls-6" points="41.5 139.2 41.5 139.6 41.5 160.5 33.8 158.4"/><rect class="cls-6" x="56.4" y="91" width="5" height="10"/><rect class="cls-6" x="55.4" y="87" width="15" height="5" transform="translate(-13.9 11.6) rotate(-9.5)"/><path class="cls-7" d="M64.4,91s0,5-4,6"/><ellipse class="cls-5" cx="58.4" cy="96.5" rx="4" ry="2.5"/><polygon class="cls-4" points="101.4 138 98.4 177 71.4 169 68.1 145 101.4 138"/><path class="cls-8" d="M85.3,90.8s-24.7,52-17.8,56,33.7-8.7,33.7-8.7-2.3-46-5.7-46.3Z"/><polyline class="cls-6" points="68.7 147.3 68.6 147.6 64.4 167 71.4 169"/><ellipse class="cls-9" cx="90.4" cy="77" rx="8" ry="16"/><path class="cls-8" d="M88.4,103S90,59,95.5,54s7.9,3,7.9,3-3.2,47-7.1,49S88.4,103,88.4,103Z"/><ellipse class="cls-9" cx="101.4" cy="48.5" rx="5.5" ry="3" transform="matrix(0.17, -0.98, 0.98, 0.17, 36.06, 139.95)"/></g></g></svg>