<svg xmlns="http://www.w3.org/2000/svg" viewBox="0 0 36 64.38"><defs><style>.cls-1{fill:#a2d1db;}.cls-2{fill:#62a9b2;}</style></defs><title>vaas</title><g id="Layer_2" data-name="Layer 2"><g id="Laag_1" data-name="Laag 1"><path class="cls-1" d="M25.58,62.19a.69.69,0,0,1,0,.25v1.11a.83.83,0,0,1-.83.83H11.9a.83.83,0,0,1-.82-.83v-1C4.58,59,0,50.63,0,40.84A27.6,27.6,0,0,1,5,24.58c5.29-12.09.54-20.43.54-20.43h0C6.17,6.09,11.5,7.61,18,7.61S29.83,6.09,30.41,4.15h.05s-4.75,8.34.54,20.43a27.6,27.6,0,0,1,5,16.26C36,50.3,31.73,58.45,25.58,62.19Z"/><path class="cls-2" d="M30.46,3.8a1.34,1.34,0,0,1-.05.35C29.83,6.09,24.5,7.61,18,7.61S6.17,6.09,5.59,4.15a1.34,1.34,0,0,1,0-.35C5.54,1.7,11.12,0,18,0S30.46,1.7,30.46,3.8Z"/></g></g></svg>