<svg id="Layer_1" data-name="Layer 1" xmlns="http://www.w3.org/2000/svg" viewBox="0 0 1367 768"><title>vuur</title><path d="M645,357s-15-2-17-14c0,0-2-11,1-16,0,0,0,2,4,4s3,3,3,3-7-15,8-23h0s-1,6,2,8,4,9,4,9a9.1,9.1,0,0,0,2-8,19.2,19.2,0,0,1,3.8,15.5h0s4.2.5,3.2-7.5c0,0,6.9,5.9,3,17.4h0S657,356,645,357" style="fill:#e73f3d"/><path d="M645.1,357s-6.4-.8-7.2-5.9c0,0-.9-4.7.4-6.8,0,0,0,.8,1.7,1.7s1.3,1.3,1.3,1.3-3-6.4,3.4-9.8h0s-.5,2.6.8,3.4,1.7,3.8,1.7,3.8a3.7,3.7,0,0,0,.8-3.4,7.9,7.9,0,0,1,1.6,6.6h0s1.8.2,1.4-3.2c0,0,2.9,2.5,1.3,7.4h0a9.1,9.1,0,0,1-7.2,4.9" style="fill:#f9d337"/></svg>