<svg id="Layer_1" data-name="Layer 1" xmlns="http://www.w3.org/2000/svg" viewBox="0 0 42.3 54"><title>vuur</title><path d="M20.2,54s-28-4-18-35c0,0,1.2,3.9,4.6,5a6.8,6.8,0,0,1,4.4,4s-7-16,9-28c0,0-1,8,3,10,0,0,4.6,3.7,4,8.4V19s4-4,2-8c0,0,4,1,5,17,0,0,4-2,4-8C38.2,20,55.2,46,20.2,54Z" style="fill:#e04c4b"/><path d="M19.7,53.4S7.9,51.7,12.1,38.6a3.2,3.2,0,0,0,2,2.1,3,3,0,0,1,1.8,1.7S13,35.7,19.7,30.6c0,0-.4,3.4,1.3,4.2,0,0,1.9,1.6,1.7,3.6v.2s1.7-1.7.8-3.4c0,0,1.7.5,2.2,7.2,0,0,1.6-.8,1.6-3.4C27.3,39,34.5,50,19.7,53.4Z" style="fill:#edea71"/></svg>